# xmcd CD database file
#
# Track frame offsets:
#	150
#	21495
#	39419
#	62587
#	82448
#	102096
#	123530
#	143939
#	167262
#	190052
#
# Disc length: 2885 seconds
#
# Revision: 0
# Processed by: cddbd v1.5.2PL0 Copyright (c) Steve Scherf et al.
# Submitted via: CDex 1.70beta2
#
DISCID=860b430a
DTITLE=Kiki Noval - Lust For Peace
DYEAR=2006
DGENRE=Jazz
TTITLE0=Crossing The Red Sea
TTITLE1=Bossanco 2
TTITLE2=Between Quintara N Santiago
TTITLE3=Southern Side
TTITLE4=The Magnificent five
TTITLE5=Lust For Peace
TTITLE6=The Heaven Within
TTITLE7=Sahara
TTITLE8=Anxiety
TTITLE9=Just A Dream
EXTD=YEAR: 2006
EXTT0=
EXTT1=
EXTT2=
EXTT3=
EXTT4=
EXTT5=
EXTT6=
EXTT7=
EXTT8=
EXTT9=
PLAYORDER=
